<?xml version="1.0" standalone="no"?>
<!DOCTYPE svg PUBLIC "-//W3C//DTD SVG 20010904//EN"
 "http://www.w3.org/TR/2001/REC-SVG-20010904/DTD/svg10.dtd">
<svg version="1.0" xmlns="http://www.w3.org/2000/svg"
 width="362.000000pt" height="362.000000pt" viewBox="0 0 362.000000 362.000000"
 preserveAspectRatio="xMidYMid meet">
<metadata>
Created by potrace 1.14, written by Peter Selinger 2001-2017
</metadata>
<g transform="translate(0.000000,362.000000) scale(0.100000,-0.100000)"
fill="#000000" stroke="none">
<path d="M100 1810 l0 -1810 1710 0 1710 0 0 1810 0 1810 -1710 0 -1710 0 0
-1810z m2464 1608 c55 -17 119 -82 139 -143 14 -41 17 -95 17 -347 l0 -298
-154 0 -154 0 -4 163 c-4 143 -7 168 -27 209 -24 49 -84 110 -127 130 -45 21
-24 28 85 28 86 0 113 3 125 16 19 18 20 28 6 55 -10 18 -23 19 -214 19 -217
0 -222 -1 -209 -49 5 -21 3 -21 -136 -21 l-141 0 0 38 c0 79 68 173 145 200
45 16 596 15 649 0z m354 -255 c23 -13 55 -43 70 -65 27 -41 27 -42 30 -255
l3 -213 -100 0 -101 0 0 285 0 285 28 -6 c15 -3 46 -17 70 -31z m-1940 -13
c52 -32 48 -15 144 -557 l11 -63 1008 0 1008 0 21 -27 c26 -33 30 -19 -77
-318 -47 -132 -120 -339 -163 -460 -43 -121 -82 -231 -88 -245 -23 -58 18 -55
-796 -60 l-751 -5 -87 -139 c-49 -77 -88 -144 -88 -150 0 -8 249 -10 847 -8
678 2 853 0 873 -11 32 -16 51 -71 38 -109 -22 -61 37 -58 -1004 -58 -943 0
-952 0 -977 20 -34 27 -43 76 -24 122 8 20 43 79 77 132 33 54 91 145 126 204
l65 106 -16 85 c-43 233 -90 492 -154 851 -38 217 -75 419 -81 448 l-12 52
-218 0 c-120 0 -230 4 -244 10 -68 25 -82 120 -25 173 l29 27 263 0 c245 0
264 -1 295 -20z m1227 -105 c32 -20 56 -45 72 -74 21 -40 23 -56 23 -193 l0
-148 -465 0 -465 0 0 147 c0 129 3 152 21 190 23 47 70 89 116 103 15 5 168 8
339 7 l311 -2 48 -30z m-855 -2311 c151 -82 214 -275 141 -429 -37 -80 -114
-149 -189 -171 -80 -23 -191 -15 -257 19 -134 69 -207 220 -175 359 17 70 33
101 83 155 101 109 268 137 397 67z m1300 8 c164 -86 231 -273 156 -437 -54
-119 -158 -180 -306 -180 -75 0 -92 4 -144 30 -71 36 -129 100 -157 175 -17
44 -20 71 -17 130 8 131 71 228 183 282 55 26 68 29 150 26 71 -2 100 -8 135
-26z"/>
<path d="M1171 2333 c0 -15 13 -86 27 -158 l27 -130 50 0 c28 1 78 2 113 3
l62 2 -1 48 c0 26 -6 94 -12 152 l-12 105 -128 3 -127 3 1 -28z"/>
<path d="M1594 2308 c3 -29 11 -99 17 -155 l12 -103 199 0 198 0 0 155 0 155
-216 0 -216 0 6 -52z"/>
<path d="M2190 2205 l0 -155 193 0 193 0 20 148 c11 81 19 150 17 155 -2 4
-98 7 -214 7 l-209 0 0 -155z"/>
<path d="M2787 2353 c-7 -12 -41 -292 -36 -297 2 -2 26 -6 52 -8 l49 -3 54
149 c30 82 54 152 54 157 0 11 -167 12 -173 2z"/>
<path d="M1266 1793 c8 -49 19 -112 25 -140 l10 -53 100 0 c115 0 105 -15 89
138 -18 158 -3 142 -129 142 l-108 0 13 -87z"/>
<path d="M1645 1838 c6 -47 25 -218 25 -230 0 -5 79 -8 175 -8 l175 0 0 140 0
140 -191 0 -190 0 6 -42z"/>
<path d="M2183 1740 l2 -140 167 0 166 0 6 28 c3 15 10 70 16 122 6 52 14 103
16 113 5 16 -8 17 -185 17 l-190 0 2 -140z"/>
<path d="M2708 1743 c-9 -76 -15 -139 -13 -141 1 -2 12 23 23 55 11 32 34 95
51 141 l30 82 -37 0 -38 0 -16 -137z"/>
<path d="M1646 2904 c-19 -18 -21 -45 -4 -62 17 -17 399 -17 416 0 19 19 14
45 -10 62 -33 24 -379 23 -402 0z"/>
<path d="M1146 580 c-65 -20 -101 -79 -93 -154 4 -41 11 -55 40 -82 47 -44 96
-52 155 -28 83 35 114 116 74 193 -32 64 -105 93 -176 71z"/>
<path d="M2440 572 c-45 -22 -72 -70 -72 -127 0 -147 184 -198 263 -72 15 24
19 45 16 83 -4 61 -29 98 -80 119 -48 19 -83 18 -127 -3z"/>
</g>
</svg>
